HIERARCHY
ROOT Hips
{
	OFFSET 0.00000 0.00000 0.00000
	CHANNELS 6 Xposition Yposition Zposition Zrotation Yrotation Xrotation 
	JOINT LHipJoint
	{
		OFFSET 0 0 0
		CHANNELS 3 Zrotation Yrotation Xrotation
		JOINT LeftUpLeg
		{
			OFFSET 1.92384 -1.64427 0.83032
			CHANNELS 3 Zrotation Yrotation Xrotation
			JOINT LeftLeg
			{
				OFFSET 2.52872 -6.94761 0.00000
				CHANNELS 3 Zrotation Yrotation Xrotation
				JOINT LeftFoot
				{
					OFFSET 2.51827 -6.91890 0.00000
					CHANNELS 3 Zrotation Yrotation Xrotation
					JOINT LeftToeBase
					{
						OFFSET 0.22757 -0.62524 2.06528
						CHANNELS 3 Zrotation Yrotation Xrotation
						End Site
						{
							OFFSET 0.00000 -0.00000 1.08218
						}
					}
				}
			}
		}
	}
	JOINT RHipJoint
	{
		OFFSET 0 0 0
		CHANNELS 3 Zrotation Yrotation Xrotation
		JOINT RightUpLeg
		{
			OFFSET -2.09517 -1.64427 0.83032
			CHANNELS 3 Zrotation Yrotation Xrotation
			JOINT RightLeg
			{
				OFFSET -2.55173 -7.01082 0.00000
				CHANNELS 3 Zrotation Yrotation Xrotation
				JOINT RightFoot
				{
					OFFSET -2.50265 -6.87598 0.00000
					CHANNELS 3 Zrotation Yrotation Xrotation
					JOINT RightToeBase
					{
						OFFSET -0.22612 -0.62126 1.98677
						CHANNELS 3 Zrotation Yrotation Xrotation
						End Site
						{
							OFFSET -0.00000 -0.00000 1.04433
						}
					}
				}
			}
		}
	}
	JOINT LowerBack
	{
		OFFSET 0 0 0
		CHANNELS 3 Zrotation Yrotation Xrotation
		JOINT Spine
		{
			OFFSET 0.02839 1.68926 0.31690
			CHANNELS 3 Zrotation Yrotation Xrotation
			JOINT Spine1
			{
				OFFSET -0.01522 1.70183 0.21192
				CHANNELS 3 Zrotation Yrotation Xrotation
				JOINT Neck
				{
					OFFSET 0 0 0
					CHANNELS 3 Zrotation Yrotation Xrotation
					JOINT Neck1
					{
						OFFSET -0.04523 1.88988 0.10630
						CHANNELS 3 Zrotation Yrotation Xrotation
						JOINT Head
						{
							OFFSET 0.05172 1.78070 -0.56858
							CHANNELS 3 Zrotation Yrotation Xrotation
							End Site
							{
								OFFSET 0.01532 1.90392 -0.20434
							}
						}
					}
				}
				JOINT LeftShoulder
				{
					OFFSET 0 0 0
					CHANNELS 3 Zrotation Yrotation Xrotation
					JOINT LeftArm
					{
						OFFSET 3.25522 0.75486 0.22086
						CHANNELS 3 Zrotation Yrotation Xrotation
						JOINT LeftForeArm
						{
							OFFSET 4.85645 -0.00000 0.00000
							CHANNELS 3 Zrotation Yrotation Xrotation
							JOINT LeftHand
							{
								OFFSET 2.79874 -0.00000 0.00000
								CHANNELS 3 Zrotation Yrotation Xrotation
								JOINT LeftFingerBase
								{
									OFFSET 0 0 0
									CHANNELS 3 Zrotation Yrotation Xrotation
									JOINT LeftHandIndex1
									{
										OFFSET 0.57340 -0.00000 0.00000
										CHANNELS 3 Zrotation Yrotation Xrotation
										End Site
										{
											OFFSET 0.46229 -0.00000 0.00000
										}
									}
								}
								JOINT LThumb
								{
									OFFSET 0 0 0
									CHANNELS 3 Zrotation Yrotation Xrotation
									End Site
									{
										OFFSET 0.46935 -0.00000 0.46935
									}
								}
							}
						}
					}
				}
				JOINT RightShoulder
				{
					OFFSET 0 0 0
					CHANNELS 3 Zrotation Yrotation Xrotation
					JOINT RightArm
					{
						OFFSET -3.29079 0.52751 0.36356
						CHANNELS 3 Zrotation Yrotation Xrotation
						JOINT RightForeArm
						{
							OFFSET -4.67018 -0.00000 0.00000
							CHANNELS 3 Zrotation Yrotation Xrotation
							JOINT RightHand
							{
								OFFSET -2.65534 -0.00000 0.00000
								CHANNELS 3 Zrotation Yrotation Xrotation
								JOINT RightFingerBase
								{
									OFFSET 0 0 0
									CHANNELS 3 Zrotation Yrotation Xrotation
									JOINT RightHandIndex1
									{
										OFFSET -0.59407 -0.00000 0.00000
										CHANNELS 3 Zrotation Yrotation Xrotation
										End Site
										{
											OFFSET -0.47895 -0.00000 0.00000
										}
									}
								}
								JOINT RThumb
								{
									OFFSET 0 0 0
									CHANNELS 3 Zrotation Yrotation Xrotation
									End Site
									{
										OFFSET -0.48627 -0.00000 0.48627
									}
								}
							}
						}
					}
				}
			}
		}
	}
}
MOTION
Frames: 6
Frame Time: 0.0263158
0.00 0.00 0.00 355.6070 -19.1260 -328.8880 0.0000 0.0000 0.0000 -1.6220 -19.5732 -57.8036 7.3271 15.6013 50.1009 -0.3072 14.1409 -16.0829 0.6619 -5.2033 -14.4893 0.0000 0.0000 0.0000 20.3681 26.1457 -38.4555 -3.0891 -10.8380 31.7354 -0.8132 -4.5364 -19.2682 -0.1563 -2.5477 7.0220 -1.8570 -1.3785 -18.4929 2.7050 -1.8131 -15.6917 3.7444 -0.7185 -6.6091 -10.2240 -5.4296 -10.3368 4.6312 -8.9914 47.3189 2.4492 -5.1283 22.1709 -0.0000 -0.0000 0.0000 -76.3591 37.9671 56.8631 115.3159 -57.4341 -81.7354 -0.0000 0.0000 -42.7901 -1.7148 31.7998 -0.9038 -7.1250 0.0000 -0.0000 -36.9189 57.7131 -12.6203 -0.0000 -0.0000 0.0000 74.7155 -23.8510 32.7581 -23.6842 34.8286 -7.5255 0.0000 0.0000 4.6429 -13.0885 -11.0559 2.5528 7.1250 -0.0000 -0.0000 12.3977 -41.0043 1.2432
0.00 0.00 0.00 376.1560 -73.0723 -339.0980 0.0000 0.0000 0.0000 -27.2651 -12.4332 -36.9323 1.8629 8.5745 24.4731 -0.0522 15.3054 -21.1787 1.1981 -6.9451 -19.5530 0.0000 0.0000 0.0000 0.4040 27.9681 -62.7783 -1.7256 -8.2695 23.5357 0.6830 -30.7910 -39.9106 -3.0223 -10.7311 31.3784 -8.0524 -3.2789 -19.8720 3.0494 -4.4645 -16.8756 7.3097 -1.8901 -6.8829 -15.4135 -7.3813 -5.7717 7.9149 -16.2935 46.1023 3.4031 -9.3925 22.3923 -0.0000 0.0000 0.0000 -71.7405 36.0504 64.3695 116.6920 -57.1289 -82.8932 -0.0000 0.0000 -44.9586 -0.0589 35.7505 -0.0344 -7.1250 0.0000 -0.0000 -39.4436 61.2138 -17.0483 -0.0000 0.0000 0.0000 74.7121 -28.6754 30.1070 -19.0101 29.4312 -5.0358 0.0000 0.0000 7.4323 -11.2032 -10.0983 1.9890 7.1250 -0.0000 -0.0000 13.7943 -39.8924 1.7757
0.00 0.00 0.00 362.4670 1.5066 -685.3080 0.0000 0.0000 0.0000 -8.1239 -28.7256 -54.9607 2.6081 10.0318 29.0797 -0.2162 8.5147 -5.5230 0.6132 -5.0119 -13.9426 0.0000 0.0000 0.0000 15.3186 17.6369 -32.6525 -5.5245 -13.9511 43.0421 -0.3209 10.8919 -11.8302 -0.2880 3.4513 -9.5379 -4.3436 -0.9911 -21.0253 -0.0425 -0.6276 -17.4483 2.2950 0.1444 -7.5414 -4.2400 -2.3622 -13.0829 -2.2661 -1.3191 41.5231 -0.5216 -1.5372 17.5353 0.0000 0.0000 0.0000 -71.6314 35.0425 61.0209 112.8272 -57.9365 -79.6319 -0.0000 0.0000 -34.0458 -10.5771 34.1419 -5.9829 -7.1250 0.0000 -0.0000 -47.3779 57.5631 -17.0852 0.0000 0.0000 0.0000 69.8328 -33.3222 64.3170 -93.1989 59.9613 -62.7700 0.0000 -0.0000 -32.6460 5.0871 -16.0440 -1.4094 7.1250 -0.0000 -0.0000 29.6004 -43.8243 0.9476
0.00 0.00 0.00 359.7720 -9.0770 -686.2950 0.0000 0.0000 0.0000 -18.7134 -19.4774 -40.4079 3.1825 10.9848 32.2286 0.5275 11.2219 -22.0156 0.6272 -5.0678 -14.1019 0.0000 0.0000 0.0000 6.7414 23.7056 -61.0376 -5.2645 -13.6756 41.9531 -0.1763 -7.6107 -14.0398 -0.1374 2.3889 -6.5817 -2.4277 0.7492 -21.2851 1.0471 1.2701 -16.0272 2.6958 0.8858 -5.8235 2.4433 2.3258 -12.6728 -4.7107 4.4708 35.0481 -1.6509 1.6140 14.2922 0.0000 -0.0000 0.0000 -69.7907 29.2595 66.0872 103.0201 -59.3497 -71.2511 -0.0000 0.0000 -39.6130 -14.3348 32.4544 -7.8084 -7.1250 0.0000 -0.0000 -48.9176 55.5586 -15.2927 0.0000 -0.0000 0.0000 69.3664 -30.9434 63.4530 -93.0957 59.9638 -62.6807 0.0000 -0.0000 -29.1406 7.4115 -16.7958 -2.1526 7.1250 -0.0000 -0.0000 31.8726 -44.2050 0.7010
0.00 0.00 0.00 360.2370 -8.7885 -686.2430 0.0000 0.0000 0.0000 -20.4799 -18.4089 -35.1291 2.2719 9.4108 27.0890 0.4247 11.5400 -21.3547 0.7397 -5.4942 -15.3238 0.0000 0.0000 0.0000 -0.6772 27.9965 -58.9852 -1.9862 -8.8372 25.2874 0.3865 -14.9127 -16.2987 -0.0424 1.3292 -3.6552 -2.5537 0.5358 -21.3303 1.0208 1.0107 -16.1106 2.6987 0.7644 -5.8846 3.5463 3.0095 -12.5793 -4.7022 5.1128 33.6596 -1.7159 2.0589 13.7114 -0.0000 0.0000 0.0000 -70.6651 29.4743 65.5489 100.6907 -59.5637 -69.2449 -0.0000 0.0000 -39.8452 -14.6594 32.8729 -8.0811 -7.1250 0.0000 -0.0000 -49.6158 55.7880 -15.9022 -0.0000 0.0000 0.0000 71.2456 -31.6626 60.2458 -93.3017 59.9588 -62.8589 0.0000 -0.0000 -26.8747 4.7967 -20.2367 -1.6626 7.1250 -0.0000 -0.0000 31.4431 -47.5022 -2.1453
0.00 0.00 0.00 355.2850 -6.7432 -685.7200 0.0000 0.0000 0.0000 -15.0807 -11.8051 -33.8060 6.1222 14.5457 45.4700 0.4387 8.7790 -18.6561 2.4528 -9.7515 -28.1757 0.0000 0.0000 0.0000 12.4991 27.6487 -52.8587 -2.1532 -9.1781 26.3542 0.2047 -8.7621 -7.0415 -0.0706 -1.7138 4.7152 2.6927 1.8662 -22.1353 1.9758 1.9614 -17.6085 0.9473 0.8266 -7.1936 4.5398 3.4647 -12.3748 -5.0287 5.5355 31.3117 -1.9186 2.3584 12.7293 -0.0000 -0.0000 0.0000 -74.3884 33.0367 60.0591 91.0651 -59.9957 -60.9224 -0.0000 0.0000 -20.8535 -4.6546 35.3344 -2.6959 -7.1250 0.0000 -0.0000 -43.3116 59.7867 -17.5887 -0.0000 -0.0000 0.0000 69.2691 -30.1375 59.7657 -86.6706 59.9581 -57.1171 0.0000 -0.0000 -25.9869 7.1531 -19.0123 -2.3411 7.1250 -0.0000 -0.0000 32.7847 -46.1370 -1.0313
